# xmcd
#
# Track frame offsets: 
#        182
#        18897
#        36027
#        59122
#        74582
#        107162
#        123190
#        150562
#        168680
#        184872
#
# Disc length: 2784 seconds
#
# Revision: 0
# Processed by: cddbd v1.4PL0 Copyright (c) Steve Scherf et al.
# Submitted via: ExactAudioCopy v0.90b4
#
DISCID=890ade0a
DTITLE=U.P. Wilson - Boogie Boy! Texas Guitar Returns!
DYEAR=1994
DGENRE=Blues
TTITLE0=Tell Me Baby
TTITLE1=Shakin' Dem Bones
TTITLE2=Still With You
TTITLE3=Boogie Boy
TTITLE4=Whiskey Headed Woman
TTITLE5=Half Step
TTITLE6=T for Texas (Blue Yodel No. 1)
TTITLE7=Need the Need
TTITLE8=Soul King Shuffle
TTITLE9=Too Late to Cry
EXTD=
EXTT0=
EXTT1=
EXTT2=
EXTT3=
EXTT4=
EXTT5=
EXTT6=
EXTT7=
EXTT8=
EXTT9=
PLAYORDER=
